HIERARCHY
ROOT SpineBase
{
  OFFSET 0.000000 0.000000 0.000000
  CHANNELS 6 Xposition Yposition Zposition Zrotation Xrotation Yrotation
  JOINT SpineMid
  {
    OFFSET -0.000000 30.422708 0.000000
    CHANNELS 3 Zrotation Xrotation Yrotation
    JOINT SpineShoulder
    {
      OFFSET -0.121176 22.528851 -0.513028
      CHANNELS 3 Zrotation Xrotation Yrotation
      JOINT Neck
      {
        OFFSET -0.022254 7.417911 -0.456802
        CHANNELS 3 Zrotation Xrotation Yrotation
        JOINT Head
        {
          OFFSET 5.228004 13.298119 3.571459
          CHANNELS 3 Zrotation Xrotation Yrotation
          End Site
          {
            OFFSET 0 0 0
          }
        }
      }
      JOINT ShoulderLeft
      {
        OFFSET -10.155891 -4.921150 -10.454954
        CHANNELS 3 Zrotation Xrotation Yrotation
        JOINT ElbowLeft
        {
          OFFSET -8.724268 -22.652738 -2.134036
          CHANNELS 3 Zrotation Xrotation Yrotation
          JOINT WristLeft
          {
            OFFSET 0.942937 -28.530481 -4.730947
            CHANNELS 3 Zrotation Xrotation Yrotation
            JOINT HandLeft
            {
              OFFSET -0.671129 -5.628498 0.088936
              CHANNELS 3 Zrotation Xrotation Yrotation
              JOINT HandTipLeft
              {
                OFFSET 0.576988 -5.607777 -0.386828
                CHANNELS 3 Zrotation Xrotation Yrotation
                End Site
                {
                  OFFSET 0 0 0
                }
              }
              JOINT ThumbLeft
              {
                OFFSET -2.401058 1.750757 -4.006560
                CHANNELS 3 Zrotation Xrotation Yrotation
                End Site
                {
                  OFFSET 0 0 0
                }
              }
            }
          }
        }
      }
      JOINT ShoulderRight
      {
        OFFSET 11.122209 -8.659015 7.832020
        CHANNELS 3 Zrotation Xrotation Yrotation
        JOINT ElbowRight
        {
          OFFSET 5.875127 -26.777870 6.733599
          CHANNELS 3 Zrotation Xrotation Yrotation
          JOINT WristRight
          {
            OFFSET 8.831833 -19.810857 5.016486
            CHANNELS 3 Zrotation Xrotation Yrotation
            JOINT HandRight
            {
              OFFSET 3.153699 -8.367326 -0.240398
              CHANNELS 3 Zrotation Xrotation Yrotation
              JOINT HandTipRight
              {
                OFFSET -0.069343 -2.399936 -0.905825
                CHANNELS 3 Zrotation Xrotation Yrotation
                End Site
                {
                  OFFSET 0 0 0
                }
              }
              JOINT ThumbRight
              {
                OFFSET -1.289279 -1.796550 -2.664848
                CHANNELS 3 Zrotation Xrotation Yrotation
                End Site
                {
                  OFFSET 0 0 0
                }
              }
            }
          }
        }
      }
    }
  }
  JOINT HipLeft
  {
    OFFSET -5.037529 1.050967 -7.345109
    CHANNELS 3 Zrotation Xrotation Yrotation
    JOINT KneeLeft
    {
      OFFSET 7.418216 -36.291680 -6.029070
      CHANNELS 3 Zrotation Xrotation Yrotation
      JOINT AnkleLeft
      {
        OFFSET 6.942998 -44.240434 -6.799330
        CHANNELS 3 Zrotation Xrotation Yrotation
        JOINT FootLeft
        {
          OFFSET 2.089594 -8.333948 -12.546614
          CHANNELS 3 Zrotation Xrotation Yrotation
          End Site
          {
            OFFSET 0 0 0
          }
        }
      }
    }
  }
  JOINT HipRight
  {
    OFFSET 6.290982 -0.446759 0.176320
    CHANNELS 3 Zrotation Xrotation Yrotation
    JOINT KneeRight
    {
      OFFSET -5.024715 -34.774496 -12.088143
      CHANNELS 3 Zrotation Xrotation Yrotation
      JOINT AnkleRight
      {
        OFFSET 2.583946 -7.788244 28.905608
        CHANNELS 3 Zrotation Xrotation Yrotation
        JOINT FootRight
        {
          OFFSET 2.593943 -7.855216 -12.699770
          CHANNELS 3 Zrotation Xrotation Yrotation
          End Site
          {
            OFFSET 0 0 0
          }
        }
      }
    }
  }
}
MOTION
Frames: 8
Frame Time: 0.033333
-79.695712 87.815095 450.368306 0.000000 0.000000 -33.581693 -0.000000 -0.000000 33.581693 -0.000000 0.000000 0.000000 -0.000000 0.000000 0.000000 0.000000 0.000000 0.000000 -0.000000 0.000000 0.000000 -0.000000 0.000000 0.000000 -0.000000 0.000000 0.000000 -0.000000 0.000000 0.000000 0.000000 0.000000 0.000000 0.000000 0.000000 0.000000 -0.000000 0.000000 0.000000 -0.000000 0.000000 0.000000 -0.000000 0.000000 0.000000 -0.000000 0.000000 0.000000 0.000000 0.000000 0.000000 0.000000 0.000000 0.000000 -0.000000 -0.000000 33.581693 -0.000000 0.000000 0.000000 -0.000000 0.000000 0.000000 0.000000 0.000000 0.000000 -0.000000 -0.000000 33.581693 -0.000000 0.000000 0.000000 -0.000000 0.000000 0.000000 0.000000 0.000000 0.000000
-79.563096 87.804149 450.453056 0.395991 0.224349 -33.478850 -0.206541 -0.405564 33.477343 -0.000000 0.000000 0.000000 0.441693 -0.775812 0.190004 0.000000 0.000000 0.000000 -0.000000 0.000000 0.000000 -0.000000 0.000000 0.000000 4.625034 2.648766 -0.351573 -4.613714 -2.668464 0.137073 0.000000 0.000000 0.000000 0.000000 0.000000 0.000000 -0.000000 0.000000 0.000000 -0.000000 0.000000 0.000000 -0.000000 0.000000 0.000000 -0.000000 0.000000 0.000000 0.000000 0.000000 0.000000 0.000000 0.000000 0.000000 -0.206541 -0.405564 33.477343 -0.000000 0.000000 0.000000 4.337638 2.018460 -5.886289 0.000000 0.000000 0.000000 -0.206541 -0.405564 33.477343 -3.264622 31.629479 7.007735 1.296187 -31.817991 -7.684857 0.000000 0.000000 0.000000
-79.458988 87.788105 450.535199 0.761309 0.419748 -33.301723 -0.027684 0.119064 33.319530 -0.015870 -0.028072 0.028982 0.120437 -2.013127 0.316892 0.000000 0.000000 0.000000 -0.788123 -0.505695 -0.053516 0.902594 0.368497 -0.140284 8.020653 4.726365 -0.677906 -8.897405 -5.144874 0.071742 0.000000 0.000000 0.000000 0.000000 0.000000 0.000000 -0.788123 -0.505695 -0.053516 -0.000000 0.000000 0.000000 -0.000000 0.000000 0.000000 -0.000000 0.000000 0.000000 0.000000 0.000000 0.000000 0.000000 0.000000 0.000000 -0.808141 -1.810152 33.305208 0.542143 1.412293 0.159268 8.762163 2.752230 -11.323879 0.000000 0.000000 0.000000 -0.405877 -0.768793 33.296211 -12.816380 57.094918 18.838085 -0.003919 -58.113707 -14.917475 0.000000 0.000000 0.000000
-79.383388 87.766964 450.614736 1.096772 0.586723 -33.047499 -0.034307 0.130463 33.070702 -0.029532 -0.047438 0.040845 0.289667 -2.856920 0.455505 0.000000 0.000000 0.000000 -1.110467 -0.665975 -0.076812 1.443162 0.677236 -0.225151 11.328187 6.570424 -1.128217 -11.867165 -7.392209 -0.097032 0.000000 0.000000 0.000000 0.000000 0.000000 0.000000 -1.110467 -0.665975 -0.076812 -0.000000 0.000000 0.000000 -0.000000 0.000000 0.000000 -0.000000 0.000000 0.000000 0.000000 0.000000 0.000000 0.000000 0.000000 0.000000 -1.181386 -2.381280 33.060119 0.701482 1.748718 0.190963 12.117788 3.557403 -15.480632 0.000000 0.000000 0.000000 -0.599502 -1.089840 33.036182 -29.661769 70.152504 36.819813 -2.071613 -72.845089 -20.857166 0.000000 0.000000 0.000000
-79.336296 87.740725 450.691667 1.403102 0.725714 -32.715794 -0.036531 0.110123 32.742868 -0.046679 -0.070189 0.051030 0.527946 -3.589382 0.578532 0.000000 0.000000 0.000000 -1.386410 -0.765779 -0.096907 2.042293 1.068883 -0.321727 14.032565 8.006205 -1.549280 -14.170940 -9.263981 -0.279382 0.000000 0.000000 0.000000 0.000000 0.000000 0.000000 -1.386410 -0.765779 -0.096907 -0.000000 0.000000 0.000000 -0.000000 0.000000 0.000000 -0.000000 0.000000 0.000000 0.000000 0.000000 0.000000 0.000000 0.000000 0.000000 -1.537954 -2.740936 32.745303 0.802054 1.833064 0.186961 14.204292 4.153874 -17.974636 0.000000 0.000000 0.000000 -0.788549 -1.368781 32.697488 -50.408431 75.428154 58.138215 -1.791806 -80.493719 -23.375526 0.000000 0.000000 0.000000
-79.317711 87.709389 450.765991 1.680929 0.837072 -32.308876 -0.034977 0.058122 32.338815 -0.067144 -0.096287 0.059584 0.832522 -4.208535 0.683852 0.000000 0.000000 0.000000 -0.605890 -0.652509 -0.255876 1.684298 1.392138 -0.270295 16.088607 9.028493 -1.878736 -15.555350 -10.789055 -0.400366 0.000000 0.000000 0.000000 0.000000 0.000000 0.000000 -1.616768 -0.805693 -0.113310 -0.000000 0.000000 0.000000 -0.000000 0.000000 0.000000 -0.000000 0.000000 0.000000 0.000000 0.000000 0.000000 0.000000 0.000000 0.000000 -1.878038 -2.892246 32.365148 0.850455 1.660836 0.145128 14.808688 4.682834 -18.582235 0.000000 0.000000 0.000000 -0.973719 -1.605656 32.282951 -67.535768 77.017538 75.550279 5.851387 -84.227992 -17.843943 0.000000 0.000000 0.000000
-79.301794 87.664719 450.859921 1.966434 0.905018 -31.965803 -0.011781 -0.047885 31.999242 -0.091104 -0.136963 0.068403 1.518984 -4.706518 0.705955 0.000000 0.000000 0.000000 -0.544146 -0.414432 -0.360049 2.326497 2.010235 -0.334547 17.929491 11.289904 -2.602655 -13.420978 -11.514256 0.182961 0.000000 0.000000 0.000000 0.000000 0.000000 0.000000 -1.841530 -0.729901 -0.127290 -0.000000 0.000000 0.000000 -0.000000 0.000000 0.000000 -0.924042 0.660712 0.334206 0.000000 0.000000 0.000000 0.000000 0.000000 0.000000 -2.359719 -3.081848 32.064235 1.282743 1.542785 0.046821 10.783984 3.758731 -13.686978 0.000000 0.000000 0.000000 -1.189777 -1.808453 31.931492 -73.125384 77.167854 81.332406 11.402293 -84.696755 -12.979593 0.000000 0.000000 0.000000
-79.339737 87.625600 450.947706 2.178757 0.963181 -31.342059 0.005892 -0.183597 31.377915 -0.115848 -0.168529 0.073628 2.239562 -5.004944 0.675508 0.000000 0.000000 0.000000 -0.167781 -0.200955 -0.460143 2.726788 2.721064 -0.404622 18.942189 11.167183 -2.544003 -13.936278 -9.354515 0.248125 0.000000 0.000000 0.000000 0.000000 0.000000 0.000000 -1.973900 -0.630454 -0.134280 -0.000000 0.000000 0.000000 -0.000000 0.000000 0.000000 -0.781980 0.585145 0.281640 0.000000 0.000000 0.000000 0.000000 0.000000 0.000000 -2.690571 -2.825356 31.498502 1.288200 0.782939 -0.090198 7.246952 4.451455 -8.793312 0.000000 0.000000 0.000000 -0.663554 -2.382445 31.302141 -64.232884 76.844661 71.977077 17.444314 -78.798034 -7.477259 0.000000 0.000000 0.000000
